<svg width="28" height="28" viewBox="0 0 28 28" fill="none" xmlns="http://www.w3.org/2000/svg">
<path d="M18 2C19.6569 2 21 3.34315 21 5V19C21 20.6569 19.6569 22 18 22H16V22.5C16 22.7761 15.7761 23 15.5 23H15V26H18C18.5523 26 19 26.4477 19 27C19 27.5523 18.5523 28 18 28H10C9.44772 28 9 27.5523 9 27C9 26.4477 9.44772 26 10 26H13V23H12.5C12.2239 23 12 22.7761 12 22.5V22H10C8.34315 22 7 20.6569 7 19V5C7 3.34315 8.34315 2 10 2H18ZM10 4C8.89543 4 8 4.89543 8 6V18C8 19.1046 8.89543 20 10 20H18C19.1046 20 20 19.1046 20 18V6C20 4.89543 19.1046 4 18 4H10Z" fill="white"/>
</svg>
