<svg width="28" height="28" viewBox="0 0 28 28" fill="none" xmlns="http://www.w3.org/2000/svg">
<path d="M19 6C20.1046 6 21 6.89543 21 8V19C21 20.1046 20.1046 21 19 21H16V21.5C16 21.7761 15.7761 22 15.5 22H15V26H18C18.5523 26 19 26.4477 19 27C19 27.5523 18.5523 28 18 28H10C9.44772 28 9 27.5523 9 27C9 26.4477 9.44772 26 10 26H13V22H12.5C12.2239 22 12 21.7761 12 21.5V21H9C7.89543 21 7 20.1046 7 19V8C7 6.89543 7.89543 6 9 6H19ZM9 8C8.44772 8 8 8.44772 8 9V18C8 18.5523 8.44772 19 9 19H19C19.5523 19 20 18.5523 20 18V9C20 8.44772 19.5523 8 19 8H9Z" fill="white"/>
</svg>
