<svg width="28" height="28" viewBox="0 0 28 28" fill="none" xmlns="http://www.w3.org/2000/svg">
<path d="M9.5 16C11.1569 16 12.5 17.3431 12.5 19V24C12.5 25.6051 11.2394 26.9158 9.6543 26.9961L9.5 27H4.5L4.3457 26.9961C2.81166 26.9184 1.58163 25.6883 1.50391 24.1543L1.5 24V19C1.5 17.3431 2.84315 16 4.5 16H9.5ZM17.5 24C18.0523 24 18.5 24.4477 18.5 25V26C18.5 26.5523 18.0523 27 17.5 27H16.5C15.9477 27 15.5 26.5523 15.5 26V25C15.5 24.4477 15.9477 24 16.5 24H17.5ZM25.5 24C26.0523 24 26.5 24.4477 26.5 25V26C26.5 26.5523 26.0523 27 25.5 27H24.5C23.9477 27 23.5 26.5523 23.5 26V25C23.5 24.4477 23.9477 24 24.5 24H25.5ZM4.5 18C3.94772 18 3.5 18.4477 3.5 19V24C3.5 24.5523 3.94772 25 4.5 25H9.5C10.0523 25 10.5 24.5523 10.5 24V19C10.5 18.4477 10.0523 18 9.5 18H4.5ZM22.5 19C23.0523 19 23.5 19.4477 23.5 20V23C23.5 23.5523 23.0523 24 22.5 24H19.5C18.9477 24 18.5 23.5523 18.5 23V20C18.5 19.4477 18.9477 19 19.5 19H22.5ZM17.5 16C18.0523 16 18.5 16.4477 18.5 17V18C18.5 18.5523 18.0523 19 17.5 19H16.5C15.9477 19 15.5 18.5523 15.5 18V17C15.5 16.4477 15.9477 16 16.5 16H17.5ZM25.5 16C26.0523 16 26.5 16.4477 26.5 17V18C26.5 18.5523 26.0523 19 25.5 19H24.5C23.9477 19 23.5 18.5523 23.5 18V17C23.5 16.4477 23.9477 16 24.5 16H25.5ZM9.5 2C11.1569 2 12.5 3.34315 12.5 5V10C12.5 11.6051 11.2394 12.9158 9.6543 12.9961L9.5 13H4.5L4.3457 12.9961C2.81166 12.9184 1.58163 11.6883 1.50391 10.1543L1.5 10V5C1.5 3.34315 2.84315 2 4.5 2H9.5ZM23.5 2C25.1569 2 26.5 3.34315 26.5 5V10C26.5 11.6051 25.2394 12.9158 23.6543 12.9961L23.5 13H18.5L18.3457 12.9961C16.8117 12.9184 15.5816 11.6883 15.5039 10.1543L15.5 10V5C15.5 3.34315 16.8431 2 18.5 2H23.5ZM4.5 4C3.94772 4 3.5 4.44772 3.5 5V10C3.5 10.5523 3.94772 11 4.5 11H9.5C10.0523 11 10.5 10.5523 10.5 10V5C10.5 4.44772 10.0523 4 9.5 4H4.5ZM18.5 4C17.9477 4 17.5 4.44772 17.5 5V10C17.5 10.5523 17.9477 11 18.5 11H23.5C24.0523 11 24.5 10.5523 24.5 10V5C24.5 4.44772 24.0523 4 23.5 4H18.5Z" fill="#6B6B6B"/>
</svg>
