<svg width="16" height="16" viewBox="0 0 16 16" fill="none" xmlns="http://www.w3.org/2000/svg">
<path d="M9.285 5.29287C9.67553 4.9024 10.3086 4.90236 10.6991 5.29287C11.0894 5.68338 11.0895 6.31644 10.6991 6.70693L9.41195 7.99404L10.703 9.28505C11.0934 9.67552 11.0933 10.3086 10.703 10.6991C10.3124 11.0896 9.67943 11.0896 9.28891 10.6991L7.99789 9.4081L6.70688 10.6991C6.31638 11.0894 5.6833 11.0895 5.29281 10.6991C4.90234 10.3086 4.90245 9.67559 5.29281 9.28505L6.58383 7.99404L5.29672 6.70693C4.9064 6.31639 4.90626 5.68332 5.29672 5.29287C5.68719 4.90259 6.3203 4.90261 6.71078 5.29287L7.99789 6.57998L9.285 5.29287Z" fill="white"/>
</svg>
