<svg width="16" height="16" viewBox="0 0 16 16" fill="none" xmlns="http://www.w3.org/2000/svg">
<path d="M8 0V3C8 4.65685 9.34315 6 11 6H14V14C14 15.1046 13.1046 16 12 16H4C2.89543 16 2 15.1046 2 14V2C2 0.895431 2.89543 0 4 0H8ZM5 11C4.44772 11 4 11.4477 4 12C4 12.5523 4.44772 13 5 13H8C8.55228 13 9 12.5523 9 12C9 11.4477 8.55228 11 8 11H5ZM5 8C4.44772 8 4 8.44771 4 9C4 9.55229 4.44772 10 5 10H11C11.5523 10 12 9.55229 12 9C12 8.44771 11.5523 8 11 8H5ZM10 0.272461C10.3235 0.419849 10.6227 0.622681 10.8789 0.878906L13.1211 3.12109C13.3772 3.37722 13.5792 3.67662 13.7266 4H11C10.4477 4 10 3.55228 10 3V0.272461Z" fill="white"/>
</svg>
