<svg width="16" height="16" viewBox="0 0 16 16" fill="none" xmlns="http://www.w3.org/2000/svg">
<path d="M14.1777 4.84927C13.3237 3.98102 12.1347 3.48302 10.9152 3.48302H9.57548L10.399 2.65952C10.7645 2.29402 10.7645 1.69927 10.399 1.33377C10.0447 0.97927 9.42723 0.98002 9.07323 1.33377L6.47248 3.93452C6.20448 4.20252 6.20448 4.63877 6.47248 4.90677L9.07323 7.50727C9.42723 7.86102 10.0447 7.86177 10.399 7.50727C10.7645 7.14177 10.7645 6.54702 10.399 6.18152L9.57548 5.35802H10.9475C12.2422 5.35802 13.4345 6.40727 13.5512 7.64902C13.672 8.93002 12.818 10.101 11.5647 10.3725C11.1377 10.465 10.8397 10.8243 10.8397 11.246C10.822 11.5468 10.9347 11.8443 11.1692 12.0313C11.3797 12.2035 11.659 12.2688 11.9232 12.2133C13.9255 11.7985 15.4035 10.0133 15.4377 7.96852C15.457 6.80252 15.0095 5.69502 14.1777 4.84927Z" fill="#6B6B6B"/>
<path d="M6.9276 8.49275C6.5736 8.13875 5.95585 8.1385 5.60185 8.49275C5.23635 8.85825 5.23635 9.453 5.60185 9.8185L6.42535 10.642H5.05335C3.7586 10.642 2.56635 9.59275 2.4496 8.351C2.32885 7.07 3.18285 5.899 4.4361 5.6275C4.8966 5.53 5.1936 5.12175 5.1611 4.67025C5.1611 4.395 5.0411 4.13925 4.8316 3.9685C4.6211 3.797 4.34635 3.7305 4.0776 3.7865C2.07535 4.20125 0.597346 5.9865 0.563096 8.03125C0.543846 9.19725 0.991097 10.3048 1.82285 11.1505C2.67685 12.0188 3.86585 12.5168 5.08535 12.5168H6.4251L5.6016 13.3403C5.2361 13.7058 5.2361 14.3005 5.6016 14.666C5.7786 14.843 6.0141 14.9405 6.26435 14.9405C6.5146 14.9405 6.7501 14.843 6.9271 14.666L9.52785 12.0653C9.79585 11.7973 9.79585 11.361 9.52785 11.093L6.9271 8.4925L6.9276 8.49275Z" fill="#6B6B6B"/>
</svg>
