<svg width="16" height="16" viewBox="0 0 16 16" fill="none" xmlns="http://www.w3.org/2000/svg">
<g clip-path="url(#clip0_82_318)">
<path d="M12.3636 0H3.63636C2.67205 0.000346967 1.74732 0.383574 1.06545 1.06545C0.383574 1.74732 0.000346967 2.67205 0 3.63636L0 12.3636C0.000346967 13.328 0.383574 14.2527 1.06545 14.9346C1.74732 15.6164 2.67205 15.9997 3.63636 16H12.3636C13.328 15.9997 14.2527 15.6164 14.9346 14.9346C15.6164 14.2527 15.9997 13.328 16 12.3636V3.63636C15.9997 2.67205 15.6164 1.74732 14.9346 1.06545C14.2527 0.383574 13.328 0.000346967 12.3636 0ZM4.41455 3.63636C4.70223 3.63636 4.98345 3.72167 5.22265 3.8815C5.46185 4.04133 5.64828 4.2685 5.75837 4.53428C5.86846 4.80006 5.89727 5.09252 5.84114 5.37468C5.78502 5.65683 5.64649 5.91601 5.44306 6.11943C5.23964 6.32285 4.98047 6.46138 4.69831 6.51751C4.41616 6.57363 4.1237 6.54483 3.85792 6.43473C3.59213 6.32464 3.36496 6.13821 3.20514 5.89901C3.04531 5.65981 2.96 5.37859 2.96 5.09091C2.96113 4.70549 3.11474 4.33618 3.38728 4.06364C3.65981 3.79111 4.02912 3.6375 4.41455 3.63636ZM14.5455 12.3636C14.5438 12.9418 14.3134 13.4957 13.9045 13.9045C13.4957 14.3134 12.9418 14.5438 12.3636 14.5455H3.63636C3.05823 14.5438 2.50426 14.3134 2.09545 13.9045C1.68665 13.4957 1.45623 12.9418 1.45455 12.3636V12.1891L4.21818 9.97818C4.29356 9.92117 4.38393 9.88736 4.47822 9.8809C4.57251 9.87444 4.66664 9.89561 4.74909 9.94182L6.81455 11.1782C7.2021 11.4137 7.66087 11.5036 8.10865 11.4316C8.55643 11.3596 8.96394 11.1306 9.25818 10.7855L12.1236 7.43273C12.1663 7.38372 12.2188 7.34418 12.2776 7.31663C12.3365 7.28907 12.4005 7.27412 12.4655 7.27273C12.529 7.2701 12.5923 7.28107 12.6513 7.3049C12.7102 7.32873 12.7634 7.36487 12.8073 7.41091L14.5455 9.14182V12.3636Z" fill="#6B6B6B"/>
</g>
<defs>
<clipPath id="clip0_82_318">
<rect width="16" height="16" fill="white"/>
</clipPath>
</defs>
</svg>
