<svg width="16" height="16" viewBox="0 0 16 16" fill="none" xmlns="http://www.w3.org/2000/svg">
<g clip-path="url(#clip0_82_495)">
<path d="M10.3604 14C10.7135 14.0002 10.9998 14.2865 11 14.6396V15.3604C10.9998 15.7135 10.7135 15.9998 10.3604 16H9.63965C9.28646 15.9998 9.00018 15.7135 9 15.3604V14.6396C9.00018 14.2865 9.28646 14.0002 9.63965 14H10.3604ZM15.3604 14C15.7135 14.0002 15.9998 14.2865 16 14.6396V15.3604C15.9998 15.7135 15.7135 15.9998 15.3604 16H14.6396C14.2865 15.9998 14.0002 15.7135 14 15.3604V14.6396C14.0002 14.2865 14.2865 14.0002 14.6396 14H15.3604ZM5.27637 9.00879C6.24437 9.10709 6.99977 9.92506 7 10.9189V14.0791L6.99023 14.2754C6.89847 15.179 6.17995 15.8975 5.27637 15.9893L5.08008 15.999H1.91992C0.925846 15.999 0.108082 15.2435 0.00976562 14.2754L0 14.0791V10.9189C0.000242713 9.8588 0.859726 8.99904 1.91992 8.99902H5.08008L5.27637 9.00879ZM13.3604 11C13.7135 11.0002 13.9998 11.2865 14 11.6396V13.3604C13.9998 13.7135 13.7135 13.9998 13.3604 14H11.6396C11.2865 13.9998 11.0002 13.7135 11 13.3604V11.6396C11.0002 11.2865 11.2865 11.0002 11.6396 11H13.3604ZM2 13.999H5V10.999H2V13.999ZM10.3604 9C10.7135 9.00018 10.9998 9.28646 11 9.63965V10.3604C10.9998 10.7135 10.7135 10.9998 10.3604 11H9.63965C9.28646 10.9998 9.00018 10.7135 9 10.3604V9.63965C9.00018 9.28646 9.28646 9.00018 9.63965 9H10.3604ZM15.3604 9C15.7135 9.00018 15.9998 9.28646 16 9.63965V10.3604C15.9998 10.7135 15.7135 10.9998 15.3604 11H14.6396C14.2865 10.9998 14.0002 10.7135 14 10.3604V9.63965C14.0002 9.28646 14.2865 9.00018 14.6396 9H15.3604ZM5.27637 0.00976562C6.24451 0.108082 6.99999 0.925846 7 1.91992V5.08008L6.99023 5.27637C6.89847 6.17997 6.17997 6.89847 5.27637 6.99023L5.08008 7H1.91992C0.925846 6.99999 0.108082 6.24451 0.00976562 5.27637L0 5.08008V1.91992C1.18541e-05 0.859584 0.859584 1.17254e-05 1.91992 0H5.08008L5.27637 0.00976562ZM14.2764 0.00976562C15.2445 0.108082 16 0.925846 16 1.91992V5.08008L15.9902 5.27637C15.8985 6.17997 15.18 6.89847 14.2764 6.99023L14.0801 7H10.9199C9.92585 6.99999 9.10808 6.24451 9.00977 5.27637L9 5.08008V1.91992C9.00001 0.859584 9.85958 1.17254e-05 10.9199 0H14.0801L14.2764 0.00976562ZM2 5H5V2H2V5ZM11 5H14V2H11V5Z" fill="#6B6B6B"/>
</g>
<defs>
<clipPath id="clip0_82_495">
<rect width="16" height="16" fill="white"/>
</clipPath>
</defs>
</svg>
