<svg width="16" height="16" viewBox="0 0 16 16" fill="none" xmlns="http://www.w3.org/2000/svg">
<g clip-path="url(#clip0_82_314)">
<path d="M12.333 0C14.3581 0 16 1.64195 16 3.66699V12.333C16 14.3581 14.3581 16 12.333 16H3.66699C1.64195 16 0 14.3581 0 12.333V3.66699C0 1.64195 1.64195 0 3.66699 0H12.333ZM3.66699 13C3.2988 13 3 13.2988 3 13.667V14.333C3 14.7012 3.2988 15 3.66699 15H4.33301C4.7012 15 5 14.7012 5 14.333V13.667C5 13.2988 4.7012 13 4.33301 13H3.66699ZM7.66699 13C7.2988 13 7 13.2988 7 13.667V14.333C7 14.7012 7.2988 15 7.66699 15H8.33301C8.7012 15 9 14.7012 9 14.333V13.667C9 13.2988 8.7012 13 8.33301 13H7.66699ZM11.667 13C11.2988 13 11 13.2988 11 13.667V14.333C11 14.7012 11.2988 15 11.667 15H12.333C12.7012 15 13 14.7012 13 14.333V13.667C13 13.2988 12.7012 13 12.333 13H11.667ZM6.44727 4.72363C5.78236 4.39118 5 4.87478 5 5.61816V10.3818C5 11.1252 5.78236 11.6088 6.44727 11.2764L11.2109 8.89453C11.948 8.52601 11.948 7.47399 11.2109 7.10547L6.44727 4.72363ZM3.66699 1C3.2988 1 3 1.2988 3 1.66699V2.33301C3 2.7012 3.2988 3 3.66699 3H4.33301C4.7012 3 5 2.7012 5 2.33301V1.66699C5 1.2988 4.7012 1 4.33301 1H3.66699ZM7.66699 1C7.2988 1 7 1.2988 7 1.66699V2.33301C7 2.7012 7.2988 3 7.66699 3H8.33301C8.7012 3 9 2.7012 9 2.33301V1.66699C9 1.2988 8.7012 1 8.33301 1H7.66699ZM11.667 1C11.2988 1 11 1.2988 11 1.66699V2.33301C11 2.7012 11.2988 3 11.667 3H12.333C12.7012 3 13 2.7012 13 2.33301V1.66699C13 1.2988 12.7012 1 12.333 1H11.667Z" fill="#6B6B6B"/>
</g>
<defs>
<clipPath id="clip0_82_314">
<rect width="16" height="16" fill="white"/>
</clipPath>
</defs>
</svg>
