<svg width="24" height="24" viewBox="0 0 24 24" fill="none" xmlns="http://www.w3.org/2000/svg">
<path d="M15 0C16.6569 0 18 1.34315 18 3V15C18 16.6569 16.6569 18 15 18H14V18.5C14 18.7761 13.7761 19 13.5 19H13V22H15C15.5523 22 16 22.4477 16 23C16 23.5523 15.5523 24 15 24H9C8.44772 24 8 23.5523 8 23C8 22.4477 8.44772 22 9 22H11V19H10.5C10.2239 19 10 18.7761 10 18.5V18H9C7.34315 18 6 16.6569 6 15V3C6 1.34315 7.34315 0 9 0H15ZM9 2C7.89543 2 7 2.89543 7 4V14C7 15.1046 7.89543 16 9 16H15C16.1046 16 17 15.1046 17 14V4C17 2.89543 16.1046 2 15 2H9Z" fill="#D9D9D9"/>
</svg>
