<svg width="24" height="24" viewBox="0 0 24 24" fill="none" xmlns="http://www.w3.org/2000/svg">
<path d="M16 4C17.1046 4 18 4.89543 18 6V15C18 16.1046 17.1046 17 16 17H14V17.5C14 17.7761 13.7761 18 13.5 18H13V22H15C15.5523 22 16 22.4477 16 23C16 23.5523 15.5523 24 15 24H9C8.44772 24 8 23.5523 8 23C8 22.4477 8.44772 22 9 22H11V18H10.5C10.2239 18 10 17.7761 10 17.5V17H8C6.89543 17 6 16.1046 6 15V6C6 4.89543 6.89543 4 8 4H16ZM8 6C7.44772 6 7 6.44772 7 7V14C7 14.5523 7.44772 15 8 15H16C16.5523 15 17 14.5523 17 14V7C17 6.44772 16.5523 6 16 6H8Z" fill="#D9D9D9"/>
</svg>
